<svg xmlns="http://www.w3.org/2000/svg" viewBox="0 0 100 100" role="img" aria-label="Bright Minds Tuition">
  <g transform="translate(50 52) rotate(-35) translate(-50 -52)">
    <rect x="62" y="8" width="7" height="18" rx="3.5" fill="#ff9800" transform="rotate(18 65.5 17)"/>
    <rect x="68" y="14" width="7" height="14" rx="3.5" fill="#ff9800" transform="rotate(35 71.5 21)"/>
    <rect x="72" y="22" width="7" height="12" rx="3.5" fill="#ff9800" transform="rotate(52 75.5 28)"/>
    <rect x="74" y="30" width="7" height="10" rx="3.5" fill="#ff9800" transform="rotate(68 77.5 35)"/>
    <rect x="74" y="38" width="7" height="8" rx="3.5" fill="#ff9800" transform="rotate(84 77.5 42)"/>
    <path d="M48 24c-16 0-28 12-28 28 0 11 6 20 15 25v8c0 3 2 5 5 5h16c3 0 5-2 5-5v-8c9-5 15-14 15-25 0-16-12-28-28-28z" fill="#4e4391"/>
    <rect x="40" y="82" width="20" height="5" rx="1" fill="#4e4391"/>
    <rect x="42" y="88" width="16" height="4" rx="1" fill="#4e4391"/>
    <line x1="40" y1="85" x2="60" y2="85" stroke="#2d2656" stroke-width="1.5"/>
    <line x1="42" y1="90" x2="58" y2="90" stroke="#2d2656" stroke-width="1.5"/>
  </g>
</svg>
